<?xml version="1.0" encoding="UTF-8" standalone="no"?>
<svg
   xmlns:dc="http://purl.org/dc/elements/1.1/"
   xmlns:cc="http://creativecommons.org/ns#"
   xmlns:rdf="http://www.w3.org/1999/02/22-rdf-syntax-ns#"
   xmlns:svg="http://www.w3.org/2000/svg"
   xmlns="http://www.w3.org/2000/svg"
   xmlns:sodipodi="http://sodipodi.sourceforge.net/DTD/sodipodi-0.dtd"
   xmlns:inkscape="http://www.inkscape.org/namespaces/inkscape"
   id="Layer_4"
   data-name="Layer 4"
   viewBox="0 0 262.818 228.947"
   version="1.1"
   sodipodi:docname="about.svg"
   inkscape:version="0.92.4 (5da689c313, 2019-01-14)">
  <metadata
     id="metadata207">
    <rdf:RDF>
      <cc:Work
         rdf:about="">
        <dc:format>image/svg+xml</dc:format>
        <dc:type
           rdf:resource="http://purl.org/dc/dcmitype/StillImage" />
      </cc:Work>
    </rdf:RDF>
  </metadata>
  <sodipodi:namedview
     pagecolor="#ffffff"
     bordercolor="#666666"
     borderopacity="1"
     objecttolerance="10"
     gridtolerance="10"
     guidetolerance="10"
     inkscape:pageopacity="0"
     inkscape:pageshadow="2"
     inkscape:window-width="1920"
     inkscape:window-height="1027"
     id="namedview205"
     showgrid="false"
     inkscape:zoom="2.9155603"
     inkscape:cx="92.923491"
     inkscape:cy="122.69977"
     inkscape:window-x="1358"
     inkscape:window-y="-8"
     inkscape:window-maximized="1"
     inkscape:current-layer="Layer_4" />
  <defs
     id="defs4">
    <style
       id="style2">.cls-1{fill:#f5f5f5;}.cls-2{fill:#455a64;}.cls-3{fill:#fff;}.cls-4{fill:#e0e0e0;}.cls-12,.cls-13,.cls-14,.cls-16,.cls-18,.cls-20,.cls-21,.cls-22,.cls-23,.cls-5,.cls-8,.cls-9{fill:none;}.cls-5{stroke:#bababa;}.cls-12,.cls-13,.cls-16,.cls-18,.cls-21,.cls-23,.cls-5{stroke-miterlimit:10;}.cls-12,.cls-5{stroke-width:0.844px;}.cls-6{fill:#263238;}.cls-7{fill:#c35f54;}.cls-13,.cls-20,.cls-22,.cls-8,.cls-9{stroke:#263238;}.cls-14,.cls-20,.cls-22,.cls-8,.cls-9{stroke-linecap:round;stroke-linejoin:round;}.cls-8{stroke-width:0.578px;}.cls-9{stroke-width:0.519px;}.cls-10{fill:#e8505b;}.cls-11{fill:#f6b9bd;}.cls-12{stroke:#13191c;}.cls-13,.cls-23{stroke-width:1.147px;}.cls-14{stroke:#dedfe0;stroke-width:0.98px;}.cls-15{fill:#f9b0a3;}.cls-16{stroke:#ce3e50;stroke-width:1.02px;}.cls-17{fill:#ffc1b2;}.cls-18{stroke:#c6c6c6;stroke-width:0.76px;}.cls-19{fill:#f1998a;}.cls-20{stroke-width:0.527px;}.cls-21{stroke:#fff;stroke-width:0.49px;}.cls-22{stroke-width:0.558px;}.cls-23{stroke:#9fa5a8;}</style>
  </defs>
  <title
     id="title6">details-1</title>
  <path
     class="cls-1"
     d="M69.559,20.121C41.014,37.873,9.318,69.392,1.936,103.168-15.307,182.054,86.6,230.05,150.508,228.927c40.614-.713,82.588-22.424,98.481-59.806,10.341-24.324,8.766-52.554,0-77.49C221.073,12.2,144.5-26.483,69.559,20.121Z"
     id="path8" />
  <path
     class="cls-2"
     d="M213.35,156.59H182.757a3.227,3.227,0,0,1-3.227-3.227h0a3.227,3.227,0,0,1,3.227-3.227H213.35a3.227,3.227,0,0,1,3.227,3.227h0A3.227,3.227,0,0,1,213.35,156.59Z"
     id="path10" />
  <path
     class="cls-2"
     d="M234.4,156.59H198.3a3.739,3.739,0,0,1-3.536-4.813L212,92.347a3.7,3.7,0,0,1,3.536-2.689h36.1a3.74,3.74,0,0,1,3.536,4.813L237.935,153.9A3.7,3.7,0,0,1,234.4,156.59Z"
     id="path12" />
  <path
     class="cls-3"
     d="M229.432,156.59H197.986a3.739,3.739,0,0,1-3.536-4.813l17.241-59.429a3.7,3.7,0,0,1,3.536-2.689h31.446a3.739,3.739,0,0,1,3.536,4.813L232.967,153.9A3.7,3.7,0,0,1,229.432,156.59Z"
     id="path14" />
  <path
     class="cls-2"
     d="M234.39,156.59H196.178a3.227,3.227,0,0,1-3.227-3.227h0a3.227,3.227,0,0,1,3.227-3.227H234.39a3.227,3.227,0,0,1,3.227,3.227h0A3.227,3.227,0,0,1,234.39,156.59Z"
     id="path16" />
  <path
     class="cls-4"
     d="M188.7,86.839a153.33,153.33,0,0,0-14.568,25.6,5.054,5.054,0,0,0,.4,4.779h0c2.1,3.195,7.587,2.457,9.7-.513,0,0,16.144-22.353,15.456-23.257C199.524,93.229,188.7,86.839,188.7,86.839Z"
     id="path18"
     style="fill:#2a7fff" />
  <path
     class="cls-4"
     d="M178.7,108.37l-21.152-8.508-1.832,11.071,21.3,8.1a4.22,4.22,0,0,0,2.413.2,5.507,5.507,0,0,0,4.2-6.3h0A5.48,5.48,0,0,0,178.7,108.37Z"
     id="path20"
     style="fill:#2a7fff" />
  <path
     class="cls-4"
     d="M205.19,84.122L190.548,86a2.78,2.78,0,0,0-2.412,3.032l9.46,41.043L229.022,130l-4.449-40.827a2.78,2.78,0,0,0-2.453-3.1Z"
     id="path22"
     style="fill:#2a7fff" />
  <path
     class="cls-5"
     d="M192.282,106.1c0-.489-2.626-10.469-2.626-10.469"
     id="path24" />
  <path
     class="cls-6"
     d="M199.64,125.132H174.313v-2.858H199.64a1.429,1.429,0,0,1,1.429,1.429h0A1.429,1.429,0,0,1,199.64,125.132Z"
     id="path26" />
  <path
     class="cls-6"
     d="M177.647,125.132H141.285a4.305,4.305,0,0,1-4.147-3.151L130.593,98.47a3.262,3.262,0,0,1,3.142-4.136h33.626a2.84,2.84,0,0,1,2.746,2.118Z"
     id="path28" />
  <circle
     class="cls-3"
     cx="152.638"
     cy="111.049"
     r="3.175"
     id="circle30" />
  <path
     class="cls-4"
     d="M212.069,93.989a263.232,263.232,0,0,0,16.989,28.539c1.01,1.427,3.394,2.137,5.141,2.062h0c3.943-.17,5.614-4.418,4.124-7.874,0,0-12.621-29.166-14.368-29.643C223.686,87,212.069,93.989,212.069,93.989Z"
     id="path32"
     style="fill:#2a7fff" />
  <polygon
     class="cls-7"
     points="202.95 118.931 209.812 118.402 209.598 125.269 203.658 125.266 202.95 118.931"
     id="polygon34" />
  <path
     class="cls-7"
     d="M203.457,118.931s-15.733-6.065-13.985,6.326h15.1Z"
     id="path36" />
  <path
     class="cls-4"
     d="M232.5,113.956l-24.666.742,0.48,11.043,25.628-.54a5.669,5.669,0,0,0,4.519-7.7h0A5.669,5.669,0,0,0,232.5,113.956Z"
     id="path38"
     style="fill:#2a7fff" />
  <polyline
     class="cls-5"
     points="216.824 100.086 223.349 114.231 207.836 114.698 207.821 118.402"
     id="polyline40" />
  <line
     class="cls-5"
     x1="223.349"
     y1="114.231"
     x2="226.795"
     y2="115.921"
     id="line42" />
  <path
     class="cls-6"
     d="M195.079,67.647a3.176,3.176,0,0,1-2.588,3.653,3.142,3.142,0,0,1-3.553-2.691,3.176,3.176,0,0,1,2.588-3.653A3.143,3.143,0,0,1,195.079,67.647Z"
     id="path44" />
  <path
     class="cls-7"
     d="M199.447,76.194l0.728,8.589c0.25,3.017,2.183,4.473,5.056,4.2h0c2.453-.233,5.048-1.652,4.715-4.3l-1.775-13.46Z"
     id="path46" />
  <path
     class="cls-7"
     d="M201.5,78.9h0c-4.9.427-9.289-3.222-9.783-7.346l-0.986-8.632a9.54,9.54,0,0,1,7.824-10.67h0c5.1-.8,10.776,2.683,11.578,7.951l0.687,6.736A10.828,10.828,0,0,1,201.5,78.9Z"
     id="path48" />
  <polyline
     class="cls-8"
     points="196.561 68.346 196.533 70.271 197.749 70.215"
     id="polyline50" />
  <path
     class="cls-6"
     d="M201.5,63.138s-2.023,0-1.973.844c0,0,.05.572,1.812,0.538s2.207-.2,2.322-0.755S202.438,63.064,201.5,63.138Z"
     id="path52" />
  <path
     class="cls-6"
     d="M193.249,63.6s1.644-.316,1.846.466c0,0,.124.53-1.318,0.774s-1.93.092-2.1-.33C191.477,64.028,192.462,63.676,193.249,63.6Z"
     id="path54" />
  <path
     class="cls-8"
     d="M199.773,66.943a2.166,2.166,0,0,1,2.606,0"
     id="path56" />
  <path
     class="cls-8"
     d="M194.882,67.375a1.514,1.514,0,0,0-2.2.2"
     id="path58" />
  <path
     class="cls-6"
     d="M205.178,55.924s-2.306,2.96,2.281,6.551c0,0-.779,7.417-1.781,9.307,0,0-9.294-1.9-13.653,1.135,0,0,.15,6.481,7.79,6.79,10.16,0.411,11.23-9.917,11.23-9.917l-2.12-4.99,3.467,0.471s7.046-10.644-3.941-10.644Z"
     id="path60" />
  <path
     class="cls-7"
     d="M214.562,66.136a3.176,3.176,0,0,1-2.588,3.653,3.143,3.143,0,0,1-3.553-2.691,3.176,3.176,0,0,1,2.588-3.653A3.143,3.143,0,0,1,214.562,66.136Z"
     id="path62" />
  <path
     class="cls-9"
     d="M210.559,67.543s-0.35-2.3,1.834-2.271"
     id="path64" />
  <path
     class="cls-6"
     d="M205.631,56.38a126.461,126.461,0,0,1-13.623.108s-5.063-1.9-2.963-4.969c1.661-2.429,5.678-.447,5.678-0.447s-0.068-2.5,1.7-3.186c2.114-.817,8.29-1.478,13.554,6.9Z"
     id="path66" />
  <path
     class="cls-7"
     d="M200.088,84.777l-2.712.349s-1.211,4.532,5.081,4.987c6.557,0.474,9.142-1.952,10.409-5.19l-7.22-1.417Z"
     id="path68" />
  <rect
     class="cls-7"
     x="174.505"
     y="179.895"
     width="9.255"
     height="12.511"
     transform="matrix(-1, 0.004, -0.004, -1, 359.05, 371.542)"
     id="rect70" />
  <path
     class="cls-6"
     d="M204.792,130l0.651,3.989a14,14,0,0,1-13.816,16.252h-4.136v35.187l-17.171.23-0.958-43.108a12.27,12.27,0,0,1,12.241-12.5Z"
     id="path72" />
  <path
     class="cls-10"
     d="M183.857,190.606c-2.178.581-7.165,2.119-9.477-1.232l-15.629,8.469,27.591-.181-1.228-6.227A1.007,1.007,0,0,0,183.857,190.606Z"
     id="path74"
     style="fill:#333333" />
  <rect
     class="cls-11"
     x="158.759"
     y="197.752"
     width="27.591"
     height="2.391"
     transform="translate(346.413 396.757) rotate(179.623)"
     id="rect76"
     style="fill:#808080" />
  <path
     class="cls-3"
     d="M174.543,193.075a0.439,0.439,0,0,1-.181-0.144,9.2,9.2,0,0,0-2.037-2.086,0.437,0.437,0,0,1,.483-0.727,9.874,9.874,0,0,1,2.261,2.3A0.437,0.437,0,0,1,174.543,193.075Z"
     id="path78" />
  <path
     class="cls-3"
     d="M172.418,194.194a0.438,0.438,0,0,1-.181-0.144,9.2,9.2,0,0,0-2.037-2.086,0.437,0.437,0,0,1,.483-0.727,9.882,9.882,0,0,1,2.261,2.3A0.437,0.437,0,0,1,172.418,194.194Z"
     id="path80" />
  <path
     class="cls-3"
     d="M170.293,195.312a0.437,0.437,0,0,1-.181-0.144,9.216,9.216,0,0,0-2.037-2.085,0.437,0.437,0,0,1,.483-0.727,9.88,9.88,0,0,1,2.261,2.3A0.437,0.437,0,0,1,170.293,195.312Z"
     id="path82" />
  <rect
     class="cls-7"
     x="198.735"
     y="179.895"
     width="9.255"
     height="12.511"
     transform="matrix(-1, 0.004, -0.004, -1, 407.509, 371.44)"
     id="rect84" />
  <path
     class="cls-10"
     d="M207.941,190.081c-2.178.581-7.107,2.482-9.419-.869l-15.629,8.469,27.591-.181-1.286-6.59A1.007,1.007,0,0,0,207.941,190.081Z"
     id="path86"
     style="fill:#333333" />
  <rect
     class="cls-11"
     x="182.9"
     y="197.59"
     width="27.591"
     height="2.391"
     transform="translate(394.695 396.274) rotate(179.623)"
     id="rect88"
     style="fill:#808080" />
  <path
     class="cls-3"
     d="M198.685,192.913a0.438,0.438,0,0,1-.181-0.144,9.21,9.21,0,0,0-2.037-2.086,0.437,0.437,0,0,1,.483-0.727,9.875,9.875,0,0,1,2.261,2.3A0.437,0.437,0,0,1,198.685,192.913Z"
     id="path90" />
  <path
     class="cls-3"
     d="M196.559,194.032a0.438,0.438,0,0,1-.18-0.144,9.207,9.207,0,0,0-2.037-2.086,0.437,0.437,0,0,1,.483-0.727,9.875,9.875,0,0,1,2.261,2.3A0.437,0.437,0,0,1,196.559,194.032Z"
     id="path92" />
  <path
     class="cls-3"
     d="M194.435,195.15a0.436,0.436,0,0,1-.181-0.144,9.213,9.213,0,0,0-2.037-2.085,0.437,0.437,0,0,1,.483-0.727,9.886,9.886,0,0,1,2.261,2.3A0.437,0.437,0,0,1,194.435,195.15Z"
     id="path94" />
  <path
     class="cls-6"
     d="M229.022,130l0.651,3.989a14,14,0,0,1-13.816,16.252H211.72v35.187l-17.171.23-0.958-43.108a12.27,12.27,0,0,1,12.241-12.5Z"
     id="path96" />
  <path
     class="cls-12"
     d="M193.428,150.136v-8.222a12.146,12.146,0,0,1,12.083-12.187l3.06-.005"
     id="path98" />
  <polyline
     class="cls-13"
     points="153.909 201.003 129.276 127.804 109.451 200.113"
     id="polyline100" />
  <polyline
     class="cls-13"
     points="257.468 201.003 232.835 127.804 213.01 200.113"
     id="polyline102" />
  <rect
     class="cls-3"
     x="93.229"
     y="125.144"
     width="166.579"
     height="4.959"
     id="rect104" />
  <path
     class="cls-3"
     d="M120.452,42.512h41.4a2.091,2.091,0,0,1,2.091,2.091V58.4a2.091,2.091,0,0,1-2.091,2.091h-41.4a2.09,2.09,0,0,1-2.09-2.09V44.6A2.091,2.091,0,0,1,120.452,42.512Z"
     transform="translate(282.309 103.001) rotate(180)"
     id="path106"
     style="fill:#2a7fff" />
  <line
     class="cls-14"
     x1="155.925"
     y1="49.4"
     x2="125.63"
     y2="49.4"
     id="line108" />
  <line
     class="cls-14"
     x1="136.104"
     y1="54.178"
     x2="125.731"
     y2="54.178"
     id="line110" />
  <polygon
     class="cls-3"
     points="157.542 58.096 157.542 66.226 147.179 58.096 157.542 58.096"
     id="polygon112"
     style="fill:#2a7fff" />
  <polygon
     class="cls-15"
     points="86.057 71.892 92.415 97.026 104.852 118.54 100.563 122.161 82.934 100.086 75.893 79.741 86.057 71.892"
     id="polygon114" />
  <path
     class="cls-15"
     d="M104.852,118.54L115.9,121.8a3.015,3.015,0,0,1,2.359,1.763,2.175,2.175,0,0,1-.164,1.55l-0.012.026A2.264,2.264,0,0,1,115.6,126.4l-9.221-1.208,1.385,2.388a1.211,1.211,0,0,1-.026,1.4h0a1.211,1.211,0,0,1-1.645.292l-3.243-2.15a4.105,4.105,0,0,1-1.735-2.513l-0.555-2.443,1.309-3.621h2.98Z"
     id="path116" />
  <polygon
     class="cls-10"
     points="87.167 67.391 91.433 82.841 77.949 88.993 82.183 76.405 87.167 67.391"
     id="polygon118" />
  <path
     class="cls-10"
     d="M70.779,59.855s-12.955-4.772-20.471,8.9-13.534,43.354-13.534,43.354l33.5,2.8L83.4,76.625c1.652-3.535,5.77-8.109,2.848-10.7A15.187,15.187,0,0,0,80.585,62.9Z"
     id="path120" />
  <line
     class="cls-16"
     x1="79.387"
     y1="88.337"
     x2="83.192"
     y2="77.241"
     id="line122" />
  <path
     class="cls-17"
     d="M76.485,94.267L62.876,65.451,52.285,81.019l14.88,20.392a6.794,6.794,0,0,0,5.794,2.782l28.373-1.278,3.681-4.938Z"
     id="path124" />
  <path
     class="cls-17"
     d="M105.012,97.976l12.3,0.718,5.023,1.685a1.1,1.1,0,0,1,.706,1.342h0a1.1,1.1,0,0,1-1.339.759l-4.946-1.324-3.488-.277,1.5,1.352a4.955,4.955,0,0,1,1.473,2.425l0.209,0.8a2.137,2.137,0,0,1-1.489,2.6l-2.425.682a2.137,2.137,0,0,1-2.556-1.247l-0.76-1.852-2.35-1.183a7.126,7.126,0,0,1-6.3-1.534c-2.579-2.167.3-2.808,0.568-2.929S105.012,97.976,105.012,97.976Z"
     id="path126" />
  <polygon
     class="cls-10"
     points="64.238 63.328 75.893 83.291 57.769 96.154 48.508 76.351 64.238 63.328"
     id="polygon128" />
  <polyline
     class="cls-16"
     points="52.711 86.166 58.207 95.839 61.413 93.528"
     id="polyline130" />
  <line
     class="cls-16"
     x1="72.278"
     y1="85.856"
     x2="64.842"
     y2="71.892"
     id="line132" />
  <polygon
     class="cls-17"
     points="89.782 192.107 88.653 169.907 78.649 171.64 81.432 194.574 90.028 192.932 89.782 192.107"
     id="polygon134" />
  <path
     class="cls-10"
     d="M80.183,190.176s7.146,2.969,10.508-1.832l17.358,9.065-30.089.066Z"
     id="path136" />
  <polygon
     class="cls-11"
     points="108.028 200.012 77.94 200.078 77.96 197.475 108.049 197.409 108.028 200.012"
     id="polygon138" />
  <path
     class="cls-6"
     d="M90.508,192.373a0.491,0.491,0,0,0,.2-0.159,10.274,10.274,0,0,1,2.264-2.29,0.471,0.471,0,0,0,.134-0.66,0.493,0.493,0,0,0-.671-0.127,11.023,11.023,0,0,0-2.512,2.525,0.468,0.468,0,0,0,.107.663A0.493,0.493,0,0,0,90.508,192.373Z"
     id="path140" />
  <path
     class="cls-6"
     d="M92.868,193.57a0.491,0.491,0,0,0,.2-0.159,10.27,10.27,0,0,1,2.264-2.29,0.471,0.471,0,0,0,.134-0.66,0.492,0.492,0,0,0-.671-0.127,11.022,11.022,0,0,0-2.512,2.525,0.468,0.468,0,0,0,.107.663A0.493,0.493,0,0,0,92.868,193.57Z"
     id="path142" />
  <path
     class="cls-6"
     d="M95.228,194.767a0.49,0.49,0,0,0,.2-0.159,10.28,10.28,0,0,1,2.264-2.289,0.471,0.471,0,0,0,.134-0.66,0.491,0.491,0,0,0-.671-0.127,11.032,11.032,0,0,0-2.513,2.524,0.468,0.468,0,0,0,.107.663A0.493,0.493,0,0,0,95.228,194.767Z"
     id="path144" />
  <path
     class="cls-4"
     d="M70.273,114.911l18.681,27.814c1.97,3.449,1.834,4.632,2.094,8.6l1.946,33.554-16.463,1.111-4.137-33.312L52.017,119.82,51,113.233Z"
     id="path146" />
  <polygon
     class="cls-17"
     points="44.663 193.611 50.543 170.658 40.539 172.391 36.084 193.611 44.258 194.574 44.663 193.611"
     id="polygon148" />
  <path
     class="cls-10"
     d="M35.7,190.176s7.146,2.969,10.508-1.832l17.357,9.065-30.088.066Z"
     id="path150" />
  <polygon
     class="cls-11"
     points="63.542 200.012 33.454 200.078 33.474 197.475 63.562 197.409 63.542 200.012"
     id="polygon152" />
  <path
     class="cls-6"
     d="M46.022,192.373a0.491,0.491,0,0,0,.2-0.159,10.274,10.274,0,0,1,2.264-2.29,0.471,0.471,0,0,0,.134-0.66,0.493,0.493,0,0,0-.671-0.127,11.024,11.024,0,0,0-2.512,2.525,0.468,0.468,0,0,0,.107.663A0.493,0.493,0,0,0,46.022,192.373Z"
     id="path154" />
  <path
     class="cls-6"
     d="M48.382,193.57a0.491,0.491,0,0,0,.2-0.159,10.274,10.274,0,0,1,2.264-2.29,0.471,0.471,0,0,0,.134-0.66,0.492,0.492,0,0,0-.671-0.127A11.022,11.022,0,0,0,47.8,192.86a0.468,0.468,0,0,0,.107.663A0.493,0.493,0,0,0,48.382,193.57Z"
     id="path156" />
  <path
     class="cls-6"
     d="M50.742,194.767a0.491,0.491,0,0,0,.2-0.159,10.28,10.28,0,0,1,2.264-2.289,0.471,0.471,0,0,0,.134-0.66,0.491,0.491,0,0,0-.671-0.127,11.033,11.033,0,0,0-2.513,2.524,0.468,0.468,0,0,0,.107.663A0.493,0.493,0,0,0,50.742,194.767Z"
     id="path158" />
  <polyline
     class="cls-18"
     points="61.582 134.184 61.556 130.255 66.95 123.98"
     id="polyline160" />
  <path
     class="cls-4"
     d="M37.712,112.186s-4.406,9.374,1.168,22.167c0.213,0.49.428,0.93,0.643,1.348l2.265,19.426L34.013,186.48l17.134,0.2,9.246-27.589a22.6,22.6,0,0,0,.665-4.22l-0.238-35.6,4.022-4.839Z"
     id="path162" />
  <path
     class="cls-6"
     d="M93.641,39.791s3.706,7.724-2.8,7.489Z"
     id="path164" />
  <path
     class="cls-19"
     d="M86.392,49.178a3.45,3.45,0,0,0,1.763,4.531,3.413,3.413,0,0,0,4.453-1.9,3.45,3.45,0,0,0-1.763-4.531A3.413,3.413,0,0,0,86.392,49.178Z"
     id="path166" />
  <path
     class="cls-17"
     d="M82.022,56.365l-2.7,7.877c-0.941,2.768-3.094,3.679-5.723,2.75h0c-2.243-.794-4.342-2.732-3.409-5.136l4.82-12.2Z"
     id="path168" />
  <path
     class="cls-6"
     d="M80.247,61.609s-6.6-1.656-6.121-9.562c0.152-2.49,8.188,3.516,8.188,3.516Z"
     id="path170" />
  <path
     class="cls-17"
     d="M78.873,57.85h0c4.494,1.55,9.459-.841,10.889-4.589L92.71,45.4a9.214,9.214,0,0,0-4.829-11.833h0c-4.591-1.944-10.727-.013-12.713,4.735l-2.223,6.151A10.459,10.459,0,0,0,78.873,57.85Z"
     id="path172" />
  <polyline
     class="cls-20"
     points="85.949 49.238 85.552 50.927 84.425 50.59"
     id="polyline174" />
  <path
     class="cls-6"
     d="M83.636,41.145s1.9,0.473,1.65,1.254c0,0-.18.524-1.824,0.079s-2.02-.709-2-1.252S82.77,40.855,83.636,41.145Z"
     id="path176" />
  <path
     class="cls-6"
     d="M91.055,44.066s-1.466-.681-1.838,0c0,0-.24.468,1.053,1.034s1.787,0.539,2.049.184C92.615,44.886,91.775,44.324,91.055,44.066Z"
     id="path178" />
  <ellipse
     class="cls-6"
     cx="88.771"
     cy="48.59"
     rx="0.844"
     ry="0.818"
     transform="translate(11.844 114.343) rotate(-69.216)"
     id="ellipse180" />
  <ellipse
     class="cls-6"
     cx="82.073"
     cy="46.043"
     rx="0.844"
     ry="0.818"
     transform="translate(9.903 106.437) rotate(-69.216)"
     id="ellipse182" />
  <circle
     class="cls-21"
     cx="90.447"
     cy="49.238"
     r="3.849"
     transform="translate(11.891 115.826) rotate(-68.85)"
     id="circle184" />
  <circle
     class="cls-21"
     cx="82.188"
     cy="46.043"
     r="3.849"
     transform="translate(-11.599 37.162) rotate(-23.849)"
     id="circle186" />
  <line
     class="cls-21"
     x1="78.598"
     y1="44.654"
     x2="75.209"
     y2="43.343"
     id="line188" />
  <line
     class="cls-21"
     x1="85.489"
     y1="48.126"
     x2="86.569"
     y2="48.544"
     id="line190" />
  <path
     class="cls-20"
     d="M81.252,51.442s0.821,1.646,3.935,1.646"
     id="path192" />
  <path
     class="cls-6"
     d="M72.955,32.8a3.834,3.834,0,0,1,5.026-2.043v0.005c2.106-1.864,6.258-2.69,10.143-1.132,5.265,2.111,9.011,6.807,8.84,9.93S92.7,41.082,92.7,41.082a94.684,94.684,0,0,1-10.876-3.87c-0.487,2.15-1.845,5.362-5.562,4.221l-3.044,5.961S70.54,37.331,72.955,32.8Z"
     id="path194" />
  <path
     class="cls-17"
     d="M68.865,42.884a3.416,3.416,0,0,0,1.746,4.487,3.38,3.38,0,0,0,4.41-1.88A3.416,3.416,0,0,0,73.274,41,3.38,3.38,0,0,0,68.865,42.884Z"
     id="path196" />
  <path
     class="cls-22"
     d="M72.674,45.4s0.965-2.308-1.32-2.849"
     id="path198" />
  <path
     class="cls-17"
     d="M68.133,59.194l8.1,1.89,5.584,2.243s-1.582,5.494-6.613,4.584C65.935,66.235,68.133,59.194,68.133,59.194Z"
     id="path200" />
  <line
     class="cls-23"
     x1="262.818"
     y1="200.646"
     x2="27.2"
     y2="200.646"
     id="line202" />
</svg>
