<?xml version="1.0" encoding="UTF-8" standalone="no"?>
<svg
   id="svg"
   version="1.1"
   width="400"
   height="394.7791164658634"
   viewBox="0, 0, 400,394.7791164658634"
   sodipodi:docname="logo.svg"
   inkscape:version="1.4.2 (f4327f4, 2025-05-13)"
   xmlns:inkscape="http://www.inkscape.org/namespaces/inkscape"
   xmlns:sodipodi="http://sodipodi.sourceforge.net/DTD/sodipodi-0.dtd"
   xmlns="http://www.w3.org/2000/svg"
   xmlns:svg="http://www.w3.org/2000/svg"
   xmlns:rdf="http://www.w3.org/1999/02/22-rdf-syntax-ns#"
   xmlns:cc="http://creativecommons.org/ns#"
   xmlns:dc="http://purl.org/dc/elements/1.1/">
  <metadata
     id="metadata13">
    <rdf:RDF>
      <cc:Work
         rdf:about="">
        <dc:format>image/svg+xml</dc:format>
        <dc:type
           rdf:resource="http://purl.org/dc/dcmitype/StillImage" />
      </cc:Work>
    </rdf:RDF>
  </metadata>
  <defs
     id="defs11" />
  <sodipodi:namedview
     pagecolor="#ffffff"
     bordercolor="#666666"
     borderopacity="1"
     objecttolerance="10"
     gridtolerance="10"
     guidetolerance="10"
     inkscape:pageopacity="0"
     inkscape:pageshadow="2"
     inkscape:window-width="1920"
     inkscape:window-height="1009"
     id="namedview9"
     showgrid="false"
     inkscape:zoom="1.6908412"
     inkscape:cx="232.13298"
     inkscape:cy="213.20749"
     inkscape:window-x="1912"
     inkscape:window-y="-8"
     inkscape:window-maximized="1"
     inkscape:current-layer="svg"
     inkscape:showpageshadow="2"
     inkscape:pagecheckerboard="0"
     inkscape:deskcolor="#d1d1d1" />
  <path
     style="opacity:1;fill:#615fff;fill-opacity:1;stroke-width:0.591422"
     d="m 189.84633,386.93576 c -4.06602,-0.0823 -7.92505,-0.39313 -8.57561,-0.69071 -0.65057,-0.29759 -4.50959,-0.85973 -8.57562,-1.24921 -4.06602,-0.38949 -7.65891,-0.91207 -7.98419,-1.1613 -0.32528,-0.24923 -2.92155,-0.77852 -5.76948,-1.1762 -2.84794,-0.39768 -5.31059,-0.93749 -5.47257,-1.19958 -0.16198,-0.26209 -2.15662,-0.8093 -4.43254,-1.21603 -2.27592,-0.40673 -4.13803,-0.93341 -4.13803,-1.17039 0,-0.23699 -0.99803,-0.61562 -2.21783,-0.8414 -1.21981,-0.22579 -3.01625,-0.75161 -3.9921,-1.16851 -0.97584,-0.41689 -3.77031,-1.49911 -6.20992,-2.40492 -4.50855,-1.67399 -7.43412,-2.89606 -12.01516,-5.01902 -1.40383,-0.65056 -2.84542,-1.18284 -3.20354,-1.18284 -0.35811,0 -0.73983,-0.21757 -0.84826,-0.48349 -0.10843,-0.26591 -1.92705,-1.33815 -4.04138,-2.38275 -2.11433,-1.04459 -4.9088,-2.55725 -6.20993,-3.36147 -1.30112,-0.80422 -3.09757,-1.75406 -3.99209,-2.11077 -0.89453,-0.35671 -1.62641,-0.85637 -1.62641,-1.11037 0,-0.254 -0.79842,-0.79253 -1.77426,-1.19674 -0.97585,-0.40421 -1.77427,-0.92605 -1.77427,-1.15967 0,-0.2336 -0.6745,-0.73205 -1.49889,-1.10767 -1.876844,-0.85515 -5.170483,-3.22743 -12.901161,-9.29219 C 69.521791,335.996 58.416845,324.5406 47.646087,310.20062 c -1.465915,-1.95169 -2.876442,-3.81467 -3.134502,-4.13995 -0.25806,-0.32528 -1.387789,-2.05519 -2.510507,-3.84424 -1.122718,-1.78905 -2.202522,-3.38589 -2.399563,-3.54853 -0.197042,-0.16264 -0.537028,-0.69492 -0.755525,-1.18284 -0.218497,-0.48793 -1.194187,-2.21783 -2.1682,-3.84424 -0.974013,-1.62641 -2.098341,-3.689 -2.498508,-4.58352 -0.400166,-0.89453 -0.892769,-1.62641 -1.094672,-1.62641 -0.201904,0 -0.718434,-1.06456 -1.147844,-2.36569 -0.429411,-1.30112 -0.950824,-2.36568 -1.158696,-2.36568 -0.207873,0 -0.735061,-0.99803 -1.171529,-2.21783 -0.436469,-1.21981 -0.958608,-2.3509 -1.160308,-2.51354 -0.201701,-0.16265 -1.27127,-2.5579 -2.376821,-5.3228 -1.10555,-2.7649 -2.233714,-5.27992 -2.507031,-5.58893 -0.273316,-0.30902 -0.496939,-0.92244 -0.496939,-1.36315 0,-0.44071 -0.508145,-1.91779 -1.129212,-3.28239 -0.621067,-1.3646 -1.316036,-3.47912 -1.544374,-4.69892 -0.228339,-1.21981 -0.624362,-2.21784 -0.880051,-2.21784 -0.25569,0 -0.776862,-1.79148 -1.158162,-3.98106 -0.3813,-2.18959 -0.917558,-4.25217 -1.191685,-4.58352 -0.274126,-0.33135 -0.796911,-2.33236 -1.161744,-4.44669 -0.364832,-2.11433 -0.906855,-4.37652 -1.204495,-5.02708 -0.542988,-1.18683 -1.952835,-10.08535 -2.998481,-18.92549 -0.726608,-6.14292 -0.72838,-34.10813 -0.0025,-40.21667 0.885212,-7.44987 2.433274,-17.65627 2.825686,-18.62978 0.196676,-0.48792 0.824958,-2.88318 1.396181,-5.3228 2.211684,-9.44579 3.098152,-12.72651 3.515715,-13.01127 0.238489,-0.16264 0.774157,-1.82602 1.190373,-3.69639 0.416217,-1.87037 0.980547,-3.40067 1.254067,-3.40067 0.273519,0 0.497308,-0.40723 0.497308,-0.90495 0,-0.49773 0.681965,-2.56031 1.515477,-4.58352 4.406771,-10.69669 11.252047,-24.10805 15.612509,-30.588247 0.328319,-0.487923 1.991737,-3.01625 3.696485,-5.618505 1.704747,-2.602255 3.372107,-5.057382 3.705243,-5.45584 0.333138,-0.398453 1.067297,-1.329942 1.631466,-2.069976 6.286069,-8.245546 9.290528,-11.654885 17.604018,-19.97634 8.32265,-8.330624 12.287848,-11.793442 22.178309,-19.368383 1.068125,-0.818057 12.355035,-8.209853 15.376965,-10.070368 6.73236,-4.144922 25.89897,-13.158205 29.80511,-14.016137 1.00977,-0.221782 1.83594,-0.611867 1.83594,-0.866856 0,-0.254989 1.59684,-0.802488 3.54853,-1.216666 1.95169,-0.414177 3.54853,-0.948196 3.54853,-1.18671 0,-0.238513 1.66338,-0.759442 3.69639,-1.15762 2.03301,-0.398179 3.96252,-0.930019 4.2878,-1.181868 0.32529,-0.251849 2.4544,-0.778587 4.73138,-1.170528 2.27697,-0.391941 4.67223,-0.945687 5.32279,-1.230547 1.11791,-0.489493 9.15482,-1.777708 18.33407,-2.938716 2.27697,-0.287996 7.26709,-0.540082 11.08915,-0.560192 4.21415,-0.02217 6.94921,-0.2693349 6.94921,-0.6279856 0,-0.7712919 4.5504,-0.7712919 5.02708,0 0.20614,0.3335427 3.25144,0.6073646 6.98411,0.6279856 3.64022,0.02011 8.48157,0.265241 10.75854,0.544735 9.34887,1.147558 17.81401,2.482441 18.92549,2.984392 0.65056,0.2938 2.91275,0.832681 5.02708,1.197513 2.11434,0.364833 4.11535,0.887617 4.44669,1.161744 0.33135,0.274127 2.39394,0.810385 4.58352,1.191685 2.18959,0.3813 3.98107,0.889741 3.98107,1.129869 0,0.240128 1.5303,0.777137 3.40067,1.193354 1.87037,0.416216 3.53375,0.943969 3.69639,1.172784 0.16264,0.228816 1.49334,0.826812 2.9571,1.328881 4.25464,1.45933 12.10606,4.873295 12.32129,5.35756 0.10843,0.243962 0.46387,0.443567 0.78988,0.443567 0.60345,0 8.23203,3.600546 8.77143,4.139951 0.16264,0.162641 1.2272,0.763441 2.36569,1.335112 1.13849,0.57167 3.13453,1.7084 4.43566,2.526066 1.30113,0.817665 2.7649,1.667214 3.25282,1.887884 0.48792,0.22067 1.15327,0.621242 1.47855,0.89016 0.32529,0.268918 1.92212,1.337069 3.54853,2.373669 1.62641,1.036601 3.09018,2.027626 3.25282,2.202279 0.16264,0.174653 1.62641,1.239583 3.25282,2.366512 1.62641,1.126928 3.26287,2.324557 3.63658,2.661397 0.3737,0.336839 1.67856,1.410855 2.89969,2.386701 15.36163,12.276001 29.36978,27.455558 39.77803,43.104396 4.4121,6.633618 8.08268,12.837948 9.05082,15.298488 0.35196,0.89452 0.88004,1.62641 1.1735,1.62641 0.29346,0 0.53356,0.32274 0.53356,0.71719 0,0.39446 1.03401,2.85625 2.2978,5.47065 4.28367,8.86163 5.37998,11.47402 7.331,17.46902 0.37051,1.13849 0.85188,2.20305 1.06971,2.36569 0.21784,0.16264 0.7366,1.82601 1.15281,3.69638 0.41622,1.87037 0.93455,3.40068 1.15184,3.40068 0.2173,0 0.71754,1.75003 1.11165,3.88896 0.39412,2.13893 0.96866,4.33459 1.27676,4.87923 0.72431,1.28037 2.18728,9.2326 3.28308,17.84578 0.47591,3.74074 1.14593,8.04633 1.48894,9.56799 0.78449,3.48022 0.82139,34.13953 0.0442,36.73071 -0.31378,1.04619 -0.89674,5.09583 -1.29546,8.99921 -0.39872,3.90339 -0.92621,7.3632 -1.17219,7.68849 -0.24599,0.32528 -0.78812,2.92014 -1.20473,5.76636 -0.41661,2.84621 -0.93194,5.17493 -1.14517,5.17493 -0.21323,0 -0.73735,1.79645 -1.1647,3.9921 -0.42736,2.19565 -0.97883,4.25824 -1.22551,4.58352 -0.24668,0.32528 -0.78661,2.12172 -1.19987,3.99209 -0.41326,1.87037 -0.97516,3.40068 -1.24868,3.40068 -0.27352,0 -0.49731,0.42552 -0.49731,0.9456 0,0.52009 -0.38731,1.78425 -0.8607,2.80926 -0.47339,1.025 -1.24203,2.9282 -1.7081,4.22933 -1.60469,4.47985 -3.02004,7.68893 -3.47791,7.88562 -0.25241,0.10843 -0.45893,0.4599 -0.45893,0.78105 0,1.04541 -5.88217,12.49242 -9.19152,17.88716 -1.77559,2.89447 -3.22833,5.3675 -3.22833,5.49562 0,0.12812 -0.28192,0.55439 -0.62649,0.94727 -0.34457,0.39287 -1.13915,1.51273 -1.76574,2.48857 -1.99579,3.10826 -2.61634,4.01373 -3.40967,4.97519 -0.42615,0.51647 -1.88637,2.4028 -3.24493,4.19185 -1.35856,1.78905 -2.73981,3.57721 -3.06942,3.97369 -0.32963,0.39648 -1.66185,1.99331 -2.96051,3.54853 -2.96777,3.55408 -18.03743,18.64846 -21.59138,21.6268 -1.46377,1.2267 -3.45981,2.90298 -4.43566,3.72508 -2.29439,1.9329 -10.49076,7.89376 -12.90994,9.38883 -1.03158,0.63752 -1.96431,1.36941 -2.07274,1.62641 -0.10843,0.257 -0.48251,0.46728 -0.83131,0.46728 -0.34879,0 -1.4577,0.61841 -2.46425,1.37424 -1.00655,0.75583 -2.27558,1.53812 -2.82007,1.73843 -0.54448,0.2003 -2.14132,1.10219 -3.54853,2.0042 -3.39292,2.17484 -13.59926,7.30298 -14.53484,7.30298 -0.4066,0 -0.73928,0.23729 -0.73928,0.52731 0,0.29002 -0.72265,0.70868 -1.60589,0.93036 -0.88324,0.22168 -2.73162,0.91588 -4.10751,1.54267 -1.37588,0.62678 -2.71581,1.14864 -2.97762,1.15968 -0.2618,0.011 -1.54057,0.53428 -2.8417,1.16277 -1.30112,0.6285 -2.81572,1.15175 -3.36577,1.16278 -0.55004,0.011 -1.14804,0.25946 -1.32887,0.55206 -0.18084,0.2926 -1.72685,0.85974 -3.43558,1.2603 -1.70873,0.40056 -3.37293,0.92489 -3.69821,1.16518 -0.32528,0.24029 -2.38786,0.78654 -4.58352,1.2139 -2.19565,0.42735 -3.99209,0.95146 -3.99209,1.16469 0,0.21324 -2.32872,0.72856 -5.17494,1.14517 -2.84622,0.41662 -5.44108,0.96348 -5.76636,1.21525 -0.32528,0.25177 -4.05124,0.77751 -8.2799,1.16831 -4.22867,0.3908 -8.22076,0.93096 -8.87133,1.20037 -1.33758,0.55391 -16.38736,0.95147 -27.5011,0.72647 z m 28.68395,-65.21468 c 8.88478,-1.18411 21.45935,-3.859 24.8397,-5.28396 0.65057,-0.27424 2.11433,-0.82282 3.25282,-1.21907 1.13849,-0.39625 2.90862,-1.08846 3.93362,-1.53824 1.02501,-0.44979 2.00729,-0.81779 2.18286,-0.81779 0.53192,0 9.91926,-4.611 13.55393,-6.65759 17.53667,-9.87451 35.81335,-29.74314 44.19902,-48.04891 2.5982,-5.67183 4.20167,-9.24006 4.78384,-10.64559 0.94911,-2.29145 3.40823,-10.07848 3.82263,-12.10473 0.23064,-1.1278 0.62402,-2.4585 0.87415,-2.95711 1.61991,-3.22903 4.32156,-24.1356 4.3206,-33.43473 -0.002,-15.19588 -4.10806,-36.71022 -9.36955,-49.08799 -2.59708,-6.10967 -3.54818,-8.1818 -5.70067,-12.41985 -1.32169,-2.60226 -2.77355,-5.15154 -3.22637,-5.66508 -0.45283,-0.51353 -0.82332,-1.09152 -0.82332,-1.28441 0,-0.64475 -4.98703,-7.78544 -8.57052,-12.27171 -6.09023,-7.62455 -20.07324,-20.699758 -22.13691,-20.699758 -0.35085,0 -0.63792,-0.233854 -0.63792,-0.519671 0,-0.285816 -0.79842,-0.850387 -1.77426,-1.254594 -0.97585,-0.404207 -1.77427,-0.950841 -1.77427,-1.214739 0,-0.263898 -0.5307,-0.648257 -1.17934,-0.854125 -0.64863,-0.205868 -1.51359,-0.695807 -1.92212,-1.088748 -1.33798,-1.286933 -15.47487,-7.972469 -17.74615,-8.392402 -1.2198,-0.225533 -2.21783,-0.611992 -2.21783,-0.858798 0,-0.246806 -1.26416,-0.774147 -2.80925,-1.171866 -1.54509,-0.397719 -3.34153,-0.966324 -3.9921,-1.263572 -1.37393,-0.627759 -4.19582,-1.24185 -14.78554,-3.217582 l -7.68848,-1.434452 -51.74938,0.0063 -51.74939,0.0063 -2.53001,1.314038 c -5.74912,2.985982 -8.55562,5.983685 -11.19679,11.959627 -1.30173,2.945315 -1.30705,3.103911 -1.3307,39.759362 l -0.0238,36.80224 1.33069,3.33413 c 1.47014,3.68349 5.72876,8.52242 9.74518,11.07312 3.61021,2.29273 9.62144,3.21549 14.97097,2.29815 6.46883,-1.10928 6.12031,-0.83118 27.47681,-21.92533 9.10789,-8.99602 18.15664,-17.43175 20.10833,-18.74609 3.83719,-2.5841 10.98849,-6.1332 14.78554,-7.33789 1.30113,-0.41281 2.84146,-0.99255 3.42297,-1.28832 2.39424,-1.21776 14.00204,-1.88469 20.95176,-1.20379 3.7425,0.36667 7.10805,0.90374 7.479,1.19349 0.37095,0.28975 1.53552,0.68991 2.58793,0.88923 3.99395,0.75647 15.77002,6.29708 17.30773,8.14325 0.16264,0.19527 0.85641,0.64997 1.5417,1.01046 2.53873,1.33546 11.74622,10.0705 14.57131,13.82363 2.07546,2.75725 5.76039,8.80931 6.86023,11.26712 2.84144,6.34978 3.54586,8.15163 3.91035,10.00237 0.21488,1.09108 0.61769,2.51607 0.89514,3.16664 0.7866,1.84443 1.79235,9.31143 1.79235,13.30698 0,4.13182 -1.0216,11.6574 -1.77647,13.08632 -0.27956,0.5292 -0.69658,1.99297 -0.92671,3.25282 -0.51829,2.83741 -4.52836,11.15519 -7.66231,15.89334 -2.91554,4.40794 -5.57986,7.23564 -28.16742,29.89473 -21.15674,21.22375 -21.4573,21.44062 -29.77628,21.48604 -6.49178,0.0354 -9.58176,-1.26148 -14.31826,-6.00961 -4.52943,-4.54057 -5.74011,-7.4847 -5.76766,-14.02582 -0.0188,-4.46959 0.20079,-5.74939 1.3701,-7.98419 0.76588,-1.46377 1.76971,-3.0606 2.23075,-3.54853 0.46103,-0.48792 9.84098,-9.9857 20.84434,-21.10617 23.22712,-23.47434 23.44575,-23.77372 23.42467,-32.07684 -0.0112,-4.4244 -0.23345,-5.50382 -1.74041,-8.45382 -1.92185,-3.7622 -3.15134,-5.2366 -6.91698,-8.29481 -4.35777,-3.5391 -7.82911,-4.81165 -13.21234,-4.84346 -9.13004,-0.054 -4.81691,-3.8198 -68.36912,59.69385 -47.006597,46.97808 -56.502202,56.73955 -57.9464,59.56886 -1.546526,3.02976 -1.727247,3.96597 -1.727247,8.94771 0,4.76519 0.22529,6.056 1.569372,8.99187 1.951325,4.26224 6.63154,9.02746 10.887599,11.08532 l 3.215696,1.55484 60.02929,-0.004 c 33.76054,-0.002 61.84093,-0.24582 64.16925,-0.55612 z"
     id="path4" />
</svg>
